<svg xmlns="http://www.w3.org/2000/svg" width="1600" height="900" viewBox="0 0 1600 900" role="img" aria-labelledby="title desc">
  <title id="title">Ekahau site survey workflow con AI Pro e Sidekick 2</title>
  <desc id="desc">Infografica tecnica che rappresenta il workflow di una site survey Wi-Fi con planimetria, Sidekick 2, misure RF, analisi e report.</desc>
  <rect width="1600" height="900" fill="#ffffff"/>
  <rect x="70" y="70" width="1460" height="760" rx="30" fill="#ffffff" stroke="#d9e1ec" stroke-width="2"/>
  <text x="130" y="155" font-family="Arial, Helvetica, sans-serif" font-size="26" font-weight="700" letter-spacing="3" fill="#2563EB">WI-FI ENGINEERING</text>
  <text x="130" y="235" font-family="Arial, Helvetica, sans-serif" font-size="58" font-weight="700" fill="#0B1220">Site survey con la suite Ekahau</text>
  <text x="130" y="292" font-family="Arial, Helvetica, sans-serif" font-size="29" fill="#526071">AI Pro · Sidekick 2 · misure RF · validazione · troubleshooting</text>

  <g transform="translate(125 370)">
    <rect width="275" height="260" rx="22" fill="#f8fafc" stroke="#cbd5e1" stroke-width="2"/>
    <text x="28" y="48" font-family="Arial, Helvetica, sans-serif" font-size="20" font-weight="700" fill="#2563EB">01 · PREPARAZIONE</text>
    <path d="M45 92h185v105H45z" fill="#ffffff" stroke="#0B1220" stroke-width="3"/>
    <path d="M72 112v66M112 92v56M160 126v71M205 104v54" stroke="#94a3b8" stroke-width="3"/>
    <text x="28" y="230" font-family="Arial, Helvetica, sans-serif" font-size="23" font-weight="700" fill="#0B1220">Planimetria e requisiti</text>
  </g>

  <g transform="translate(455 370)">
    <rect width="275" height="260" rx="22" fill="#f8fafc" stroke="#cbd5e1" stroke-width="2"/>
    <text x="28" y="48" font-family="Arial, Helvetica, sans-serif" font-size="20" font-weight="700" fill="#2563EB">02 · RACCOLTA</text>
    <rect x="89" y="79" width="96" height="120" rx="18" fill="#0B1220"/>
    <rect x="107" y="97" width="60" height="60" rx="10" fill="#ffffff"/>
    <circle cx="137" cy="176" r="7" fill="#2563EB"/>
    <path d="M53 105c-22 20-22 58 0 78M219 105c22 20 22 58 0 78" fill="none" stroke="#2563EB" stroke-width="5" stroke-linecap="round"/>
    <path d="M34 88c-34 31-34 80 0 111M238 88c34 31 34 80 0 111" fill="none" stroke="#93b4ff" stroke-width="4" stroke-linecap="round"/>
    <text x="28" y="230" font-family="Arial, Helvetica, sans-serif" font-size="23" font-weight="700" fill="#0B1220">Sidekick 2 sul campo</text>
  </g>

  <g transform="translate(785 370)">
    <rect width="275" height="260" rx="22" fill="#f8fafc" stroke="#cbd5e1" stroke-width="2"/>
    <text x="28" y="48" font-family="Arial, Helvetica, sans-serif" font-size="20" font-weight="700" fill="#2563EB">03 · ANALISI</text>
    <rect x="42" y="82" width="192" height="114" rx="12" fill="#ffffff" stroke="#0B1220" stroke-width="3"/>
    <path d="M61 169c26-54 52-24 74-58 28-44 47 18 79-15" fill="none" stroke="#2563EB" stroke-width="7" stroke-linecap="round"/>
    <circle cx="86" cy="146" r="13" fill="#ffffff" stroke="#2563EB" stroke-width="5"/>
    <circle cx="161" cy="122" r="13" fill="#ffffff" stroke="#2563EB" stroke-width="5"/>
    <text x="28" y="230" font-family="Arial, Helvetica, sans-serif" font-size="23" font-weight="700" fill="#0B1220">Heatmap e correlazioni</text>
  </g>

  <g transform="translate(1115 370)">
    <rect width="275" height="260" rx="22" fill="#f8fafc" stroke="#cbd5e1" stroke-width="2"/>
    <text x="28" y="48" font-family="Arial, Helvetica, sans-serif" font-size="20" font-weight="700" fill="#2563EB">04 · OUTPUT</text>
    <path d="M66 80h145v118H66z" fill="#ffffff" stroke="#0B1220" stroke-width="3"/>
    <path d="M91 113h94M91 139h72M91 165h82" stroke="#94a3b8" stroke-width="5" stroke-linecap="round"/>
    <path d="M187 80v28h24" fill="none" stroke="#0B1220" stroke-width="3"/>
    <text x="28" y="230" font-family="Arial, Helvetica, sans-serif" font-size="23" font-weight="700" fill="#0B1220">Validazione e report</text>
  </g>

  <path d="M405 500h42M735 500h42M1065 500h42" stroke="#2563EB" stroke-width="5" stroke-linecap="round"/>
  <path d="M438 489l15 11-15 11M768 489l15 11-15 11M1098 489l15 11-15 11" fill="none" stroke="#2563EB" stroke-width="5" stroke-linecap="round" stroke-linejoin="round"/>

  <text x="130" y="720" font-family="Arial, Helvetica, sans-serif" font-size="25" fill="#526071">Il valore non è nella singola heatmap, ma nel workflow: requisiti → misura → analisi → decisione tecnica.</text>
  <text x="130" y="775" font-family="Arial, Helvetica, sans-serif" font-size="22" font-weight="700" fill="#0B1220">Giulio Lattanzio · Network, Wi-Fi &amp; VoIP Specialist</text>
</svg>